<mxfile host="Electron" agent="Mozilla/5.0 (X11; Linux x86_64) AppleWebKit/537.36 (KHTML, like Gecko) draw.io/24.7.8 Chrome/128.0.6613.36 Electron/32.0.1 Safari/537.36" version="24.7.8">
  <diagram name="Seite-1" id="Q_oj2abkLZ0RxLxjyU_P">
    <mxGraphModel dx="1434" dy="839" grid="1" gridSize="10" guides="1" tooltips="1" connect="1" arrows="1" fold="1" page="1" pageScale="1" pageWidth="827" pageHeight="1169" math="0" shadow="0">
      <root>
        <mxCell id="0" />
        <mxCell id="1" parent="0" />
        <mxCell id="vEGXb_c6ASutbA3VxgLz-1" value="Kafka" style="shape=folder;fontStyle=1;spacingTop=10;tabWidth=40;tabHeight=14;tabPosition=left;html=1;whiteSpace=wrap;" parent="1" vertex="1">
          <mxGeometry x="464" y="181" width="156" height="90" as="geometry" />
        </mxCell>
        <mxCell id="vEGXb_c6ASutbA3VxgLz-5" style="rounded=0;orthogonalLoop=1;jettySize=auto;html=1;endArrow=none;endFill=0;" parent="1" source="vEGXb_c6ASutbA3VxgLz-2" edge="1">
          <mxGeometry relative="1" as="geometry">
            <mxPoint x="124" y="390" as="targetPoint" />
          </mxGeometry>
        </mxCell>
        <mxCell id="vEGXb_c6ASutbA3VxgLz-2" value="User" style="shape=umlActor;verticalLabelPosition=bottom;verticalAlign=top;html=1;" parent="1" vertex="1">
          <mxGeometry x="34" y="360" width="30" height="60" as="geometry" />
        </mxCell>
        <mxCell id="vEGXb_c6ASutbA3VxgLz-3" style="edgeStyle=orthogonalEdgeStyle;rounded=0;orthogonalLoop=1;jettySize=auto;html=1;exitX=0.5;exitY=1;exitDx=0;exitDy=0;exitPerimeter=0;" parent="1" source="vEGXb_c6ASutbA3VxgLz-1" target="vEGXb_c6ASutbA3VxgLz-1" edge="1">
          <mxGeometry relative="1" as="geometry" />
        </mxCell>
        <mxCell id="vEGXb_c6ASutbA3VxgLz-4" value="Web-Frontend" style="shape=folder;fontStyle=1;spacingTop=10;tabWidth=40;tabHeight=14;tabPosition=left;html=1;whiteSpace=wrap;" parent="1" vertex="1">
          <mxGeometry x="134" y="350" width="156" height="90" as="geometry" />
        </mxCell>
        <mxCell id="vEGXb_c6ASutbA3VxgLz-6" value="BFF-Service" style="shape=folder;fontStyle=1;spacingTop=10;tabWidth=40;tabHeight=14;tabPosition=left;html=1;whiteSpace=wrap;" parent="1" vertex="1">
          <mxGeometry x="354" y="350" width="156" height="90" as="geometry" />
        </mxCell>
        <mxCell id="vEGXb_c6ASutbA3VxgLz-10" value="" style="group" parent="1" vertex="1" connectable="0">
          <mxGeometry x="801" y="335" width="176" height="110" as="geometry" />
        </mxCell>
        <mxCell id="vEGXb_c6ASutbA3VxgLz-7" value="Algorithmen" style="shape=folder;fontStyle=1;spacingTop=10;tabWidth=40;tabHeight=14;tabPosition=left;html=1;whiteSpace=wrap;" parent="vEGXb_c6ASutbA3VxgLz-10" vertex="1">
          <mxGeometry x="20" width="156" height="90" as="geometry" />
        </mxCell>
        <mxCell id="vEGXb_c6ASutbA3VxgLz-8" value="Algorithmen" style="shape=folder;fontStyle=1;spacingTop=10;tabWidth=40;tabHeight=14;tabPosition=left;html=1;whiteSpace=wrap;" parent="vEGXb_c6ASutbA3VxgLz-10" vertex="1">
          <mxGeometry x="10" y="10" width="156" height="90" as="geometry" />
        </mxCell>
        <mxCell id="vEGXb_c6ASutbA3VxgLz-9" value="Analyse-Services" style="shape=folder;fontStyle=1;spacingTop=10;tabWidth=40;tabHeight=14;tabPosition=left;html=1;whiteSpace=wrap;" parent="vEGXb_c6ASutbA3VxgLz-10" vertex="1">
          <mxGeometry y="20" width="156" height="90" as="geometry" />
        </mxCell>
        <mxCell id="vEGXb_c6ASutbA3VxgLz-11" value="Service-Registry" style="shape=folder;fontStyle=1;spacingTop=10;tabWidth=40;tabHeight=14;tabPosition=left;html=1;whiteSpace=wrap;" parent="1" vertex="1">
          <mxGeometry x="576" y="470" width="156" height="90" as="geometry" />
        </mxCell>
        <mxCell id="vEGXb_c6ASutbA3VxgLz-12" style="rounded=0;orthogonalLoop=1;jettySize=auto;html=1;endArrow=none;endFill=0;" parent="1" edge="1">
          <mxGeometry relative="1" as="geometry">
            <mxPoint x="346" y="400" as="targetPoint" />
            <mxPoint x="296" y="400" as="sourcePoint" />
          </mxGeometry>
        </mxCell>
        <mxCell id="vEGXb_c6ASutbA3VxgLz-13" style="rounded=0;orthogonalLoop=1;jettySize=auto;html=1;endArrow=classicThin;endFill=1;startArrow=classicThin;startFill=1;entryX=0.781;entryY=0.096;entryDx=0;entryDy=0;entryPerimeter=0;" parent="1" target="vEGXb_c6ASutbA3VxgLz-6" edge="1">
          <mxGeometry relative="1" as="geometry">
            <mxPoint x="434" y="340" as="targetPoint" />
            <mxPoint x="514" y="280" as="sourcePoint" />
          </mxGeometry>
        </mxCell>
        <mxCell id="vEGXb_c6ASutbA3VxgLz-14" style="rounded=0;orthogonalLoop=1;jettySize=auto;html=1;endArrow=classicThin;endFill=1;startArrow=classicThin;startFill=1;" parent="1" edge="1">
          <mxGeometry relative="1" as="geometry">
            <mxPoint x="881" y="340" as="targetPoint" />
            <mxPoint x="841" y="280" as="sourcePoint" />
          </mxGeometry>
        </mxCell>
        <mxCell id="vEGXb_c6ASutbA3VxgLz-15" style="rounded=0;orthogonalLoop=1;jettySize=auto;html=1;endArrow=classicThin;endFill=1;startArrow=classicThin;startFill=1;" parent="1" edge="1">
          <mxGeometry relative="1" as="geometry">
            <mxPoint x="560" y="520" as="targetPoint" />
            <mxPoint x="474" y="445" as="sourcePoint" />
          </mxGeometry>
        </mxCell>
        <mxCell id="vEGXb_c6ASutbA3VxgLz-16" style="rounded=0;orthogonalLoop=1;jettySize=auto;html=1;endArrow=classicThin;endFill=1;startArrow=none;startFill=0;" parent="1" edge="1">
          <mxGeometry relative="1" as="geometry">
            <mxPoint x="740" y="520" as="targetPoint" />
            <mxPoint x="798" y="450" as="sourcePoint" />
          </mxGeometry>
        </mxCell>
        <mxCell id="vEGXb_c6ASutbA3VxgLz-17" value="" style="strokeWidth=1;html=1;shape=mxgraph.flowchart.database;whiteSpace=wrap;" parent="1" vertex="1">
          <mxGeometry x="308" y="510" width="60" height="60" as="geometry" />
        </mxCell>
        <mxCell id="vEGXb_c6ASutbA3VxgLz-20" style="rounded=0;orthogonalLoop=1;jettySize=auto;html=1;endArrow=classicThin;endFill=1;startArrow=classicThin;startFill=1;entryX=0.933;entryY=0;entryDx=0;entryDy=0;entryPerimeter=0;" parent="1" target="vEGXb_c6ASutbA3VxgLz-17" edge="1">
          <mxGeometry relative="1" as="geometry">
            <mxPoint x="368" y="524" as="targetPoint" />
            <mxPoint x="406" y="445" as="sourcePoint" />
          </mxGeometry>
        </mxCell>
        <mxCell id="vEGXb_c6ASutbA3VxgLz-22" value="DB-Administrator" style="shape=umlActor;verticalLabelPosition=bottom;verticalAlign=top;html=1;" parent="1" vertex="1">
          <mxGeometry x="213" y="510" width="30" height="60" as="geometry" />
        </mxCell>
        <mxCell id="vEGXb_c6ASutbA3VxgLz-26" value="&lt;b&gt;Datenbank&lt;/b&gt;" style="text;html=1;align=center;verticalAlign=middle;resizable=0;points=[];autosize=1;strokeColor=none;fillColor=none;" parent="1" vertex="1">
          <mxGeometry x="298" y="570" width="80" height="30" as="geometry" />
        </mxCell>
        <mxCell id="vEGXb_c6ASutbA3VxgLz-27" style="rounded=0;orthogonalLoop=1;jettySize=auto;html=1;endArrow=none;endFill=0;" parent="1" edge="1">
          <mxGeometry relative="1" as="geometry">
            <mxPoint x="302" y="540" as="targetPoint" />
            <mxPoint x="242" y="540" as="sourcePoint" />
          </mxGeometry>
        </mxCell>
        <mxCell id="fle0HUZwvKdpkRu6macA-1" value="Prometheus" style="shape=folder;fontStyle=1;spacingTop=10;tabWidth=40;tabHeight=14;tabPosition=left;html=1;whiteSpace=wrap;" vertex="1" parent="1">
          <mxGeometry x="576" y="350" width="156" height="90" as="geometry" />
        </mxCell>
        <mxCell id="fle0HUZwvKdpkRu6macA-2" value="Zookeeper" style="shape=folder;fontStyle=1;spacingTop=10;tabWidth=40;tabHeight=14;tabPosition=left;html=1;whiteSpace=wrap;" vertex="1" parent="1">
          <mxGeometry x="708" y="181" width="156" height="90" as="geometry" />
        </mxCell>
        <mxCell id="fle0HUZwvKdpkRu6macA-3" style="rounded=0;orthogonalLoop=1;jettySize=auto;html=1;endArrow=classicThin;endFill=1;startArrow=classicThin;startFill=1;" edge="1" parent="1">
          <mxGeometry relative="1" as="geometry">
            <mxPoint x="513" y="400.5" as="targetPoint" />
            <mxPoint x="571" y="400" as="sourcePoint" />
            <Array as="points">
              <mxPoint x="543" y="400.5" />
            </Array>
          </mxGeometry>
        </mxCell>
        <mxCell id="fle0HUZwvKdpkRu6macA-5" style="rounded=0;orthogonalLoop=1;jettySize=auto;html=1;endArrow=classicThin;endFill=1;startArrow=classicThin;startFill=1;" edge="1" parent="1">
          <mxGeometry relative="1" as="geometry">
            <mxPoint x="736" y="400.5" as="targetPoint" />
            <mxPoint x="794" y="400" as="sourcePoint" />
            <Array as="points">
              <mxPoint x="766" y="400.5" />
            </Array>
          </mxGeometry>
        </mxCell>
        <mxCell id="fle0HUZwvKdpkRu6macA-6" style="rounded=0;orthogonalLoop=1;jettySize=auto;html=1;endArrow=classicThin;endFill=1;startArrow=classicThin;startFill=1;" edge="1" parent="1">
          <mxGeometry relative="1" as="geometry">
            <mxPoint x="636" y="235.5" as="targetPoint" />
            <mxPoint x="694" y="235" as="sourcePoint" />
            <Array as="points">
              <mxPoint x="666" y="235.5" />
            </Array>
          </mxGeometry>
        </mxCell>
      </root>
    </mxGraphModel>
  </diagram>
</mxfile>
